<svg width="22" height="22" viewBox="0 0 22 22" fill="none" xmlns="http://www.w3.org/2000/svg">
<path fill-rule="evenodd" clip-rule="evenodd" d="M9.16922 1.64198C9.86396 0.0398327 12.136 0.0398304 12.8308 1.64198L14.9324 6.48848L20.1911 6.98958C21.9296 7.15524 22.6317 9.3161 21.3226 10.4719L17.3627 13.9683L18.5112 19.1245C18.8909 20.8291 17.0527 22.1646 15.5489 21.2768L11 18.5912L6.45106 21.2768C4.94728 22.1646 3.10913 20.8291 3.48879 19.1245L4.63725 13.9683L0.677386 10.4719C-0.631658 9.3161 0.0704494 7.15524 1.80887 6.98958L7.06761 6.48848L9.16922 1.64198ZM13.1016 7.28237L11 2.43587L8.89839 7.28237C8.60924 7.94918 7.98042 8.40604 7.2569 8.47499L1.99816 8.97609L5.95803 12.4725C6.50285 12.9535 6.74303 13.6928 6.58502 14.4022L5.43656 19.5584L9.9855 16.8728C10.6114 16.5033 11.3886 16.5033 12.0145 16.8728L16.5634 19.5584L15.415 14.4022C15.257 13.6928 15.4972 12.9535 16.042 12.4725L20.0018 8.97609L14.7431 8.47499C14.0196 8.40604 13.3908 7.94918 13.1016 7.28237Z" fill="black"/>
</svg>
