<svg width="24" height="24" viewBox="0 0 24 24" fill="none" xmlns="http://www.w3.org/2000/svg">
<path fill-rule="evenodd" clip-rule="evenodd" d="M11.9994 19.9077C7.4003 17.2883 4.83525 14.6848 3.59488 12.4259C2.32537 10.1139 2.43614 8.16664 3.14059 6.78459C4.58857 3.94386 8.70617 3.03548 11.2149 6.20846L11.9993 7.20051L12.7837 6.20851C15.2929 3.0354 19.4108 3.94392 20.8587 6.78459C21.5632 8.16662 21.6739 10.1139 20.4043 12.4259C19.1638 14.6848 16.5986 17.2883 11.9994 19.9077ZM11.9994 4.10638C8.47019 0.752766 3.26381 2.13881 1.35872 5.87633C0.313178 7.92755 0.298896 10.5787 1.84178 13.3885C3.37099 16.1735 6.41989 19.113 11.5156 21.9295L11.9993 22.1969L12.4831 21.9295C17.579 19.113 20.6281 16.1735 22.1574 13.3886C23.7004 10.5787 23.6861 7.92756 22.6406 5.87633C20.7355 2.13874 15.5289 0.752817 11.9994 4.10638Z" fill="#1E212C"/>
</svg>
