<svg width="24" height="24" viewBox="0 0 24 24" fill="none" xmlns="http://www.w3.org/2000/svg">
<path d="M2.64061 8.51786C5.34472 6.26187 8.45781 5 11.75 5C15.0422 5 18.1553 6.26187 20.8594 8.51786C21.2835 8.87166 21.9141 8.81469 22.2679 8.39061C22.6217 7.96654 22.5647 7.33594 22.1406 6.98214C19.1337 4.47356 15.5794 3 11.75 3C7.92055 3 4.36625 4.47356 1.35938 6.98214C0.935301 7.33594 0.87833 7.96654 1.23213 8.39061C1.58593 8.81469 2.21653 8.87166 2.64061 8.51786Z" fill="black"/>
<path fill-rule="evenodd" clip-rule="evenodd" d="M4.10075 9.68903C5.89927 8.17064 8.46441 6.75 11.375 6.75C14.2855 6.75 16.8507 8.17064 18.6492 9.68903C19.5558 10.4544 20.2992 11.2704 20.8245 11.9993C21.0866 12.363 21.3052 12.7199 21.4626 13.0508C21.6071 13.3547 21.75 13.7383 21.75 14.125C21.75 14.5117 21.6071 14.8953 21.4626 15.1992C21.3052 15.5301 21.0866 15.887 20.8245 16.2507C20.2992 16.9796 19.5558 17.7956 18.6492 18.561C16.8507 20.0794 14.2855 21.5 11.375 21.5C8.46441 21.5 5.89927 20.0794 4.10075 18.561C3.19412 17.7956 2.45077 16.9796 1.92546 16.2507C1.66332 15.887 1.4447 15.5301 1.28735 15.1992C1.14281 14.8953 0.999969 14.5117 0.999969 14.125C0.999969 13.7383 1.14281 13.3547 1.28735 13.0508C1.4447 12.7199 1.66332 12.363 1.92546 11.9993C2.45077 11.2704 3.19412 10.4544 4.10075 9.68903ZM3.00706 14.125C3.01718 14.1589 3.04052 14.2288 3.09352 14.3403C3.18593 14.5346 3.33568 14.7868 3.54795 15.0813C3.97144 15.6689 4.60103 16.3659 5.39093 17.0328C6.98549 18.379 9.10786 19.5 11.375 19.5C13.6421 19.5 15.7644 18.379 17.359 17.0328C18.1489 16.3659 18.7785 15.6689 19.202 15.0813C19.4143 14.7868 19.564 14.5346 19.6564 14.3403C19.7094 14.2289 19.7328 14.1589 19.7429 14.125C19.7328 14.0911 19.7094 14.0211 19.6564 13.9097C19.564 13.7154 19.4143 13.4632 19.202 13.1687C18.7785 12.5811 18.1489 11.8841 17.359 11.2172C17.0236 10.9341 16.6649 10.6609 16.2863 10.406C16.4253 10.8713 16.5 11.3645 16.5 11.875C16.5 14.7055 14.2054 17 11.375 17C8.54451 17 6.24997 14.7055 6.24997 11.875C6.24997 11.3645 6.32462 10.8713 6.46361 10.406C6.08508 10.6609 5.72633 10.9341 5.39093 11.2172C4.60103 11.8841 3.97144 12.5811 3.54795 13.1687C3.33568 13.4632 3.18593 13.7154 3.09352 13.9097C3.04052 14.0211 3.01718 14.0911 3.00706 14.125ZM8.24997 11.875C8.24997 10.1491 9.64908 8.75 11.375 8.75C13.1009 8.75 14.5 10.1491 14.5 11.875C14.5 13.6009 13.1009 15 11.375 15C9.64908 15 8.24997 13.6009 8.24997 11.875Z" fill="black"/>
</svg>
