<svg width="22" height="22" fill="none" xmlns="http://www.w3.org/2000/svg"><path fill-rule="evenodd" clip-rule="evenodd" d="M9.17 1.642c.694-1.602 2.966-1.602 3.66 0l2.102 4.846 5.26.502c1.738.165 2.44 2.326 1.13 3.482l-3.96 3.496 1.15 5.157c.379 1.704-1.46 3.04-2.963 2.152L11 18.59l-4.549 2.686c-1.504.888-3.342-.448-2.962-2.152l1.148-5.157-3.96-3.496C-.632 9.316.07 7.155 1.81 6.99l5.259-.502L9.17 1.642zm3.932 5.64L11 2.436 8.898 7.282a1.996 1.996 0 01-1.641 1.193l-5.259.501 3.96 3.496c.545.482.785 1.22.627 1.93l-1.148 5.156 4.548-2.685a1.996 1.996 0 012.03 0l4.548 2.685-1.148-5.156a1.996 1.996 0 01.627-1.93l3.96-3.496-5.259-.501a1.996 1.996 0 01-1.641-1.193z" fill="#000"/></svg>