<svg width="24" height="24" fill="none" xmlns="http://www.w3.org/2000/svg"><path fill-rule="evenodd" clip-rule="evenodd" d="M12 19.908c-4.6-2.62-7.165-5.223-8.405-7.482-1.27-2.312-1.159-4.26-.454-5.641 1.448-2.841 5.565-3.75 8.074-.577l.784.993.785-.992c2.509-3.174 6.627-2.265 8.075.576.704 1.382.815 3.329-.455 5.64-1.24 2.26-3.805 4.863-8.405 7.483zm0-15.802C8.47.753 3.263 2.14 1.358 5.876.313 7.928.299 10.58 1.842 13.39c1.529 2.785 4.578 5.724 9.674 8.54l.483.268.484-.267c5.096-2.817 8.145-5.756 9.674-8.541 1.543-2.81 1.53-5.461.484-7.513-1.905-3.737-7.112-5.123-10.642-1.77z" fill="#1E212C"/></svg>