<svg width="24" height="24" fill="none" xmlns="http://www.w3.org/2000/svg"><path d="M2.64 8.518C5.346 6.262 8.459 5 11.75 5s6.405 1.262 9.11 3.518a1 1 0 001.28-1.536C19.135 4.474 15.58 3 11.75 3 7.92 3 4.366 4.474 1.36 6.982a1 1 0 101.28 1.536z" fill="#000"/><path fill-rule="evenodd" clip-rule="evenodd" d="M4.1 9.689C5.9 8.171 8.465 6.75 11.376 6.75c2.91 0 5.476 1.42 7.274 2.939.907.765 1.65 1.581 2.175 2.31.263.364.481.72.639 1.052.144.304.287.687.287 1.074s-.143.77-.287 1.074a6.951 6.951 0 01-.639 1.052c-.525.729-1.268 1.545-2.175 2.31-1.798 1.518-4.364 2.939-7.274 2.939S5.9 20.08 4.102 18.561a13.274 13.274 0 01-2.176-2.31 6.945 6.945 0 01-.638-1.052C1.143 14.895 1 14.512 1 14.125s.143-.77.287-1.074c.158-.331.376-.688.638-1.052.526-.729 1.27-1.545 2.176-2.31zm-1.093 4.436c.01.034.034.104.087.215.092.195.242.447.454.741.423.588 1.053 1.285 1.843 1.952 1.594 1.346 3.717 2.467 5.984 2.467s4.39-1.121 5.984-2.467c.79-.667 1.42-1.364 1.843-1.952.212-.294.362-.546.454-.74.053-.112.077-.182.087-.216a1.514 1.514 0 00-.087-.215 4.981 4.981 0 00-.454-.741 11.294 11.294 0 00-1.843-1.952 12.426 12.426 0 00-1.073-.811 5.125 5.125 0 11-9.823 0c-.378.255-.737.528-1.072.811-.79.667-1.42 1.364-1.843 1.952a4.985 4.985 0 00-.454.74 1.514 1.514 0 00-.087.216zm5.243-2.25a3.125 3.125 0 116.25 0 3.125 3.125 0 01-6.25 0z" fill="#000"/></svg>